# xmcd
#
# Track frame offsets:
#	150
#	12763
#	26675
#	40350
#	52793
#	64366
#	75372
#	90057
#	106275
#	120121
#
# Disc length: 1753 seconds
# Revision: 0
# Processed by: cddbd v1.5.2PL0 Copyright (c) Steve Scherf et al.
# Submitted via: dBpowerAMP V12.0
#
DISCID=6306d70a
DTITLE=Clinton Gregory - Best Of the Best Clinton Gregory
DYEAR=2009
DGENRE=Country
TTITLE0=(If It Weren't For Country Music) I'd Go Crazy
TTITLE1=Satisfy Me And I'll Satisfy You
TTITLE2=Couldn't Love Have Picked a Better Place to Die
TTITLE3=Look Who's Needing Who
TTITLE4=Jukebox Has A 45
TTITLE5=Blue Country Frame of Mind
TTITLE6=There's Never Been A Honky Tonk
TTITLE7=Game Is The Same
TTITLE8=She Can't Believe My Eyes
TTITLE9=I'll Never Always Love You
EXTD=
EXTT0=
EXTT1=
EXTT2=
EXTT3=
EXTT4=
EXTT5=
EXTT6=
EXTT7=
EXTT8=
EXTT9=
PLAYORDER=
